<mxfile host="app.diagrams.net" agent="Mozilla/5.0 (Windows NT 10.0; Win64; x64) AppleWebKit/537.36 (KHTML, like Gecko) Chrome/133.0.0.0 Safari/537.36" version="26.0.16">
  <diagram id="C5RBs43oDa-KdzZeNtuy" name="Page-1">
    <mxGraphModel dx="954" dy="746" grid="1" gridSize="10" guides="1" tooltips="1" connect="1" arrows="1" fold="1" page="1" pageScale="1" pageWidth="827" pageHeight="1169" math="0" shadow="0">
      <root>
        <mxCell id="WIyWlLk6GJQsqaUBKTNV-0" />
        <mxCell id="WIyWlLk6GJQsqaUBKTNV-1" parent="WIyWlLk6GJQsqaUBKTNV-0" />
        <mxCell id="x8f6ddaZhT9pYknEbqsL-0" value="Начало" style="ellipse;whiteSpace=wrap;html=1;" parent="WIyWlLk6GJQsqaUBKTNV-1" vertex="1">
          <mxGeometry x="60" y="50" width="120" height="80" as="geometry" />
        </mxCell>
        <mxCell id="x8f6ddaZhT9pYknEbqsL-4" value="Ввод строки" style="shape=parallelogram;perimeter=parallelogramPerimeter;whiteSpace=wrap;html=1;fixedSize=1;" parent="WIyWlLk6GJQsqaUBKTNV-1" vertex="1">
          <mxGeometry x="60" y="170" width="120" height="60" as="geometry" />
        </mxCell>
        <mxCell id="x8f6ddaZhT9pYknEbqsL-5" value="Вызов вспомогательного алгоритма" style="shape=process;whiteSpace=wrap;html=1;backgroundOutline=1;" parent="WIyWlLk6GJQsqaUBKTNV-1" vertex="1">
          <mxGeometry x="50" y="270" width="140" height="70" as="geometry" />
        </mxCell>
        <mxCell id="x8f6ddaZhT9pYknEbqsL-6" value="Конец" style="ellipse;whiteSpace=wrap;html=1;" parent="WIyWlLk6GJQsqaUBKTNV-1" vertex="1">
          <mxGeometry x="60" y="490" width="120" height="80" as="geometry" />
        </mxCell>
        <mxCell id="x8f6ddaZhT9pYknEbqsL-7" value="Вывод результата" style="shape=parallelogram;perimeter=parallelogramPerimeter;whiteSpace=wrap;html=1;fixedSize=1;" parent="WIyWlLk6GJQsqaUBKTNV-1" vertex="1">
          <mxGeometry x="50" y="380" width="140" height="70" as="geometry" />
        </mxCell>
        <mxCell id="x8f6ddaZhT9pYknEbqsL-8" value="Начало ВА" style="ellipse;whiteSpace=wrap;html=1;" parent="WIyWlLk6GJQsqaUBKTNV-1" vertex="1">
          <mxGeometry x="654" y="60" width="90" height="60" as="geometry" />
        </mxCell>
        <mxCell id="x8f6ddaZhT9pYknEbqsL-9" value="Создание пустого стека" style="rounded=0;whiteSpace=wrap;html=1;" parent="WIyWlLk6GJQsqaUBKTNV-1" vertex="1">
          <mxGeometry x="639" y="160" width="120" height="60" as="geometry" />
        </mxCell>
        <mxCell id="bQhRRVensImSbWzhFqzc-76" style="edgeStyle=orthogonalEdgeStyle;rounded=0;orthogonalLoop=1;jettySize=auto;html=1;entryX=0.5;entryY=0;entryDx=0;entryDy=0;exitX=0;exitY=0.5;exitDx=0;exitDy=0;" parent="WIyWlLk6GJQsqaUBKTNV-1" source="gQCx5Jv5vYPDxqE4EgkB-0" target="gQCx5Jv5vYPDxqE4EgkB-5" edge="1">
          <mxGeometry relative="1" as="geometry">
            <mxPoint x="644.0293596232982" y="294.9411764705883" as="sourcePoint" />
            <mxPoint x="430" y="370" as="targetPoint" />
          </mxGeometry>
        </mxCell>
        <mxCell id="r6Sr9w9dq4hsNLHl60UF-6" value="НЕТ" style="edgeLabel;html=1;align=center;verticalAlign=middle;resizable=0;points=[];" parent="bQhRRVensImSbWzhFqzc-76" vertex="1" connectable="0">
          <mxGeometry x="-0.7074" y="2" relative="1" as="geometry">
            <mxPoint as="offset" />
          </mxGeometry>
        </mxCell>
        <mxCell id="bQhRRVensImSbWzhFqzc-77" style="edgeStyle=orthogonalEdgeStyle;rounded=0;orthogonalLoop=1;jettySize=auto;html=1;entryX=0.5;entryY=0;entryDx=0;entryDy=0;exitX=1;exitY=0.5;exitDx=0;exitDy=0;" parent="WIyWlLk6GJQsqaUBKTNV-1" source="gQCx5Jv5vYPDxqE4EgkB-5" target="bQhRRVensImSbWzhFqzc-32" edge="1">
          <mxGeometry relative="1" as="geometry">
            <mxPoint x="490" y="410" as="sourcePoint" />
          </mxGeometry>
        </mxCell>
        <mxCell id="r6Sr9w9dq4hsNLHl60UF-0" value="ДА" style="edgeLabel;html=1;align=center;verticalAlign=middle;resizable=0;points=[];" parent="bQhRRVensImSbWzhFqzc-77" vertex="1" connectable="0">
          <mxGeometry x="-0.3004" y="1" relative="1" as="geometry">
            <mxPoint as="offset" />
          </mxGeometry>
        </mxCell>
        <mxCell id="bQhRRVensImSbWzhFqzc-82" style="edgeStyle=orthogonalEdgeStyle;rounded=0;orthogonalLoop=1;jettySize=auto;html=1;exitX=0;exitY=0.5;exitDx=0;exitDy=0;entryX=0.5;entryY=0;entryDx=0;entryDy=0;" parent="WIyWlLk6GJQsqaUBKTNV-1" source="gQCx5Jv5vYPDxqE4EgkB-5" target="bQhRRVensImSbWzhFqzc-31" edge="1">
          <mxGeometry relative="1" as="geometry">
            <mxPoint x="370" y="410" as="sourcePoint" />
          </mxGeometry>
        </mxCell>
        <mxCell id="r6Sr9w9dq4hsNLHl60UF-1" value="НЕТ" style="edgeLabel;html=1;align=center;verticalAlign=middle;resizable=0;points=[];" parent="bQhRRVensImSbWzhFqzc-82" vertex="1" connectable="0">
          <mxGeometry x="-0.3477" y="-1" relative="1" as="geometry">
            <mxPoint as="offset" />
          </mxGeometry>
        </mxCell>
        <mxCell id="bQhRRVensImSbWzhFqzc-63" style="edgeStyle=orthogonalEdgeStyle;rounded=0;orthogonalLoop=1;jettySize=auto;html=1;exitX=0;exitY=0.5;exitDx=0;exitDy=0;entryX=0.5;entryY=0;entryDx=0;entryDy=0;" parent="WIyWlLk6GJQsqaUBKTNV-1" source="gQCx5Jv5vYPDxqE4EgkB-3" target="bQhRRVensImSbWzhFqzc-5" edge="1">
          <mxGeometry relative="1" as="geometry">
            <mxPoint x="640" y="760" as="sourcePoint" />
          </mxGeometry>
        </mxCell>
        <mxCell id="r6Sr9w9dq4hsNLHl60UF-2" value="ДА" style="edgeLabel;html=1;align=center;verticalAlign=middle;resizable=0;points=[];" parent="bQhRRVensImSbWzhFqzc-63" vertex="1" connectable="0">
          <mxGeometry x="-0.2062" relative="1" as="geometry">
            <mxPoint as="offset" />
          </mxGeometry>
        </mxCell>
        <mxCell id="bQhRRVensImSbWzhFqzc-70" style="edgeStyle=orthogonalEdgeStyle;rounded=0;orthogonalLoop=1;jettySize=auto;html=1;entryX=0.5;entryY=0;entryDx=0;entryDy=0;exitX=1;exitY=0.5;exitDx=0;exitDy=0;" parent="WIyWlLk6GJQsqaUBKTNV-1" source="gQCx5Jv5vYPDxqE4EgkB-3" target="bQhRRVensImSbWzhFqzc-6" edge="1">
          <mxGeometry relative="1" as="geometry">
            <mxPoint x="760" y="760" as="sourcePoint" />
          </mxGeometry>
        </mxCell>
        <mxCell id="r6Sr9w9dq4hsNLHl60UF-9" value="НЕТ" style="edgeLabel;html=1;align=center;verticalAlign=middle;resizable=0;points=[];" parent="bQhRRVensImSbWzhFqzc-70" vertex="1" connectable="0">
          <mxGeometry x="-0.3452" y="2" relative="1" as="geometry">
            <mxPoint as="offset" />
          </mxGeometry>
        </mxCell>
        <mxCell id="bQhRRVensImSbWzhFqzc-83" style="edgeStyle=orthogonalEdgeStyle;rounded=0;orthogonalLoop=1;jettySize=auto;html=1;exitX=1;exitY=0.5;exitDx=0;exitDy=0;" parent="WIyWlLk6GJQsqaUBKTNV-1" source="bQhRRVensImSbWzhFqzc-4" edge="1">
          <mxGeometry relative="1" as="geometry">
            <mxPoint x="1070" y="440" as="targetPoint" />
          </mxGeometry>
        </mxCell>
        <mxCell id="bQhRRVensImSbWzhFqzc-4" value="Поместить символ в стек" style="rounded=0;whiteSpace=wrap;html=1;" parent="WIyWlLk6GJQsqaUBKTNV-1" vertex="1">
          <mxGeometry x="870" y="410" width="120" height="60" as="geometry" />
        </mxCell>
        <mxCell id="bQhRRVensImSbWzhFqzc-64" style="edgeStyle=orthogonalEdgeStyle;rounded=0;orthogonalLoop=1;jettySize=auto;html=1;exitX=0.5;exitY=1;exitDx=0;exitDy=0;entryX=0.5;entryY=0;entryDx=0;entryDy=0;" parent="WIyWlLk6GJQsqaUBKTNV-1" source="bQhRRVensImSbWzhFqzc-5" target="bQhRRVensImSbWzhFqzc-29" edge="1">
          <mxGeometry relative="1" as="geometry" />
        </mxCell>
        <mxCell id="bQhRRVensImSbWzhFqzc-5" value="Вернуть &quot;NO&quot;" style="rounded=0;whiteSpace=wrap;html=1;" parent="WIyWlLk6GJQsqaUBKTNV-1" vertex="1">
          <mxGeometry x="490" y="800" width="120" height="60" as="geometry" />
        </mxCell>
        <mxCell id="bQhRRVensImSbWzhFqzc-61" style="edgeStyle=orthogonalEdgeStyle;rounded=0;orthogonalLoop=1;jettySize=auto;html=1;exitX=0.5;exitY=1;exitDx=0;exitDy=0;entryX=0.5;entryY=0;entryDx=0;entryDy=0;" parent="WIyWlLk6GJQsqaUBKTNV-1" source="bQhRRVensImSbWzhFqzc-6" target="gQCx5Jv5vYPDxqE4EgkB-4" edge="1">
          <mxGeometry relative="1" as="geometry">
            <mxPoint x="860" y="885.5" as="targetPoint" />
          </mxGeometry>
        </mxCell>
        <mxCell id="bQhRRVensImSbWzhFqzc-6" value="Извлечь символ из стека" style="rounded=0;whiteSpace=wrap;html=1;" parent="WIyWlLk6GJQsqaUBKTNV-1" vertex="1">
          <mxGeometry x="800" y="800" width="120" height="60" as="geometry" />
        </mxCell>
        <mxCell id="bQhRRVensImSbWzhFqzc-75" style="edgeStyle=orthogonalEdgeStyle;rounded=0;orthogonalLoop=1;jettySize=auto;html=1;exitX=1;exitY=0.5;exitDx=0;exitDy=0;entryX=1;entryY=0.5;entryDx=0;entryDy=0;" parent="WIyWlLk6GJQsqaUBKTNV-1" source="gQCx5Jv5vYPDxqE4EgkB-4" target="gQCx5Jv5vYPDxqE4EgkB-0" edge="1">
          <mxGeometry relative="1" as="geometry">
            <Array as="points">
              <mxPoint x="1070" y="942" />
              <mxPoint x="1070" y="305" />
            </Array>
            <mxPoint x="920" y="975.5" as="sourcePoint" />
            <mxPoint x="740" y="440" as="targetPoint" />
          </mxGeometry>
        </mxCell>
        <mxCell id="r6Sr9w9dq4hsNLHl60UF-11" value="ДА" style="edgeLabel;html=1;align=center;verticalAlign=middle;resizable=0;points=[];" parent="bQhRRVensImSbWzhFqzc-75" vertex="1" connectable="0">
          <mxGeometry x="-0.9756" relative="1" as="geometry">
            <mxPoint as="offset" />
          </mxGeometry>
        </mxCell>
        <mxCell id="bQhRRVensImSbWzhFqzc-74" style="edgeStyle=orthogonalEdgeStyle;rounded=0;orthogonalLoop=1;jettySize=auto;html=1;entryX=0.5;entryY=0;entryDx=0;entryDy=0;" parent="WIyWlLk6GJQsqaUBKTNV-1" source="bQhRRVensImSbWzhFqzc-13" target="bQhRRVensImSbWzhFqzc-72" edge="1">
          <mxGeometry relative="1" as="geometry">
            <mxPoint x="700" y="1015" as="targetPoint" />
          </mxGeometry>
        </mxCell>
        <mxCell id="bQhRRVensImSbWzhFqzc-13" value="Вернуть &quot;NO&lt;span style=&quot;background-color: transparent; color: light-dark(rgb(0, 0, 0), rgb(255, 255, 255));&quot;&gt;&quot;&lt;/span&gt;" style="rounded=0;whiteSpace=wrap;html=1;" parent="WIyWlLk6GJQsqaUBKTNV-1" vertex="1">
          <mxGeometry x="640" y="910" width="120" height="60" as="geometry" />
        </mxCell>
        <mxCell id="bQhRRVensImSbWzhFqzc-17" value="" style="endArrow=classic;html=1;rounded=0;exitX=0.5;exitY=1;exitDx=0;exitDy=0;entryX=0.5;entryY=0;entryDx=0;entryDy=0;" parent="WIyWlLk6GJQsqaUBKTNV-1" source="gQCx5Jv5vYPDxqE4EgkB-0" target="gQCx5Jv5vYPDxqE4EgkB-2" edge="1">
          <mxGeometry width="50" height="50" relative="1" as="geometry">
            <mxPoint x="699" y="331.65999999999985" as="sourcePoint" />
            <mxPoint x="699" y="369.9999999999999" as="targetPoint" />
          </mxGeometry>
        </mxCell>
        <mxCell id="r6Sr9w9dq4hsNLHl60UF-5" value="ДА" style="edgeLabel;html=1;align=center;verticalAlign=middle;resizable=0;points=[];" parent="bQhRRVensImSbWzhFqzc-17" vertex="1" connectable="0">
          <mxGeometry x="-0.1327" y="-3" relative="1" as="geometry">
            <mxPoint y="-1" as="offset" />
          </mxGeometry>
        </mxCell>
        <mxCell id="bQhRRVensImSbWzhFqzc-18" value="" style="endArrow=classic;html=1;rounded=0;exitX=0.5;exitY=1;exitDx=0;exitDy=0;entryX=0.5;entryY=0;entryDx=0;entryDy=0;" parent="WIyWlLk6GJQsqaUBKTNV-1" source="x8f6ddaZhT9pYknEbqsL-9" target="gQCx5Jv5vYPDxqE4EgkB-0" edge="1">
          <mxGeometry width="50" height="50" relative="1" as="geometry">
            <mxPoint x="660" y="360" as="sourcePoint" />
            <mxPoint x="720" y="240" as="targetPoint" />
          </mxGeometry>
        </mxCell>
        <mxCell id="bQhRRVensImSbWzhFqzc-19" value="" style="endArrow=classic;html=1;rounded=0;entryX=0.5;entryY=0;entryDx=0;entryDy=0;exitX=0.5;exitY=1;exitDx=0;exitDy=0;" parent="WIyWlLk6GJQsqaUBKTNV-1" source="x8f6ddaZhT9pYknEbqsL-8" target="x8f6ddaZhT9pYknEbqsL-9" edge="1">
          <mxGeometry width="50" height="50" relative="1" as="geometry">
            <mxPoint x="660" y="310" as="sourcePoint" />
            <mxPoint x="710" y="260" as="targetPoint" />
          </mxGeometry>
        </mxCell>
        <mxCell id="bQhRRVensImSbWzhFqzc-29" value="Конец" style="ellipse;whiteSpace=wrap;html=1;" parent="WIyWlLk6GJQsqaUBKTNV-1" vertex="1">
          <mxGeometry x="512.5" y="900.5" width="75" height="50" as="geometry" />
        </mxCell>
        <mxCell id="bQhRRVensImSbWzhFqzc-81" style="edgeStyle=orthogonalEdgeStyle;rounded=0;orthogonalLoop=1;jettySize=auto;html=1;exitX=0.5;exitY=1;exitDx=0;exitDy=0;entryX=0;entryY=0.5;entryDx=0;entryDy=0;" parent="WIyWlLk6GJQsqaUBKTNV-1" source="bQhRRVensImSbWzhFqzc-31" target="bQhRRVensImSbWzhFqzc-36" edge="1">
          <mxGeometry relative="1" as="geometry" />
        </mxCell>
        <mxCell id="bQhRRVensImSbWzhFqzc-31" value="Вернуть &quot;NO&lt;span style=&quot;color: light-dark(rgb(0, 0, 0), rgb(255, 255, 255)); background-color: transparent;&quot;&gt;&quot;&lt;/span&gt;" style="rounded=0;whiteSpace=wrap;html=1;" parent="WIyWlLk6GJQsqaUBKTNV-1" vertex="1">
          <mxGeometry x="240" y="450" width="120" height="60" as="geometry" />
        </mxCell>
        <mxCell id="bQhRRVensImSbWzhFqzc-78" style="edgeStyle=orthogonalEdgeStyle;rounded=0;orthogonalLoop=1;jettySize=auto;html=1;exitX=0.5;exitY=1;exitDx=0;exitDy=0;entryX=1;entryY=0.5;entryDx=0;entryDy=0;" parent="WIyWlLk6GJQsqaUBKTNV-1" source="bQhRRVensImSbWzhFqzc-32" target="bQhRRVensImSbWzhFqzc-36" edge="1">
          <mxGeometry relative="1" as="geometry" />
        </mxCell>
        <mxCell id="bQhRRVensImSbWzhFqzc-32" value="Вернуть &quot;YES&lt;span style=&quot;background-color: transparent; color: light-dark(rgb(0, 0, 0), rgb(255, 255, 255));&quot;&gt;&quot;&lt;/span&gt;" style="rounded=0;whiteSpace=wrap;html=1;" parent="WIyWlLk6GJQsqaUBKTNV-1" vertex="1">
          <mxGeometry x="500" y="450" width="120" height="60" as="geometry" />
        </mxCell>
        <mxCell id="bQhRRVensImSbWzhFqzc-36" value="Конец" style="ellipse;whiteSpace=wrap;html=1;" parent="WIyWlLk6GJQsqaUBKTNV-1" vertex="1">
          <mxGeometry x="392.5" y="550.5" width="75" height="50" as="geometry" />
        </mxCell>
        <mxCell id="bQhRRVensImSbWzhFqzc-39" value="" style="endArrow=classic;html=1;rounded=0;entryX=0.5;entryY=0;entryDx=0;entryDy=0;exitX=0.5;exitY=1;exitDx=0;exitDy=0;" parent="WIyWlLk6GJQsqaUBKTNV-1" source="x8f6ddaZhT9pYknEbqsL-0" target="x8f6ddaZhT9pYknEbqsL-4" edge="1">
          <mxGeometry width="50" height="50" relative="1" as="geometry">
            <mxPoint x="560" y="460" as="sourcePoint" />
            <mxPoint x="610" y="410" as="targetPoint" />
          </mxGeometry>
        </mxCell>
        <mxCell id="bQhRRVensImSbWzhFqzc-40" value="" style="endArrow=classic;html=1;rounded=0;entryX=0.5;entryY=0;entryDx=0;entryDy=0;exitX=0.5;exitY=1;exitDx=0;exitDy=0;" parent="WIyWlLk6GJQsqaUBKTNV-1" source="x8f6ddaZhT9pYknEbqsL-4" target="x8f6ddaZhT9pYknEbqsL-5" edge="1">
          <mxGeometry width="50" height="50" relative="1" as="geometry">
            <mxPoint x="560" y="460" as="sourcePoint" />
            <mxPoint x="610" y="410" as="targetPoint" />
          </mxGeometry>
        </mxCell>
        <mxCell id="bQhRRVensImSbWzhFqzc-41" value="" style="endArrow=classic;html=1;rounded=0;entryX=0.5;entryY=0;entryDx=0;entryDy=0;exitX=0.5;exitY=1;exitDx=0;exitDy=0;" parent="WIyWlLk6GJQsqaUBKTNV-1" source="x8f6ddaZhT9pYknEbqsL-5" target="x8f6ddaZhT9pYknEbqsL-7" edge="1">
          <mxGeometry width="50" height="50" relative="1" as="geometry">
            <mxPoint x="560" y="460" as="sourcePoint" />
            <mxPoint x="610" y="410" as="targetPoint" />
          </mxGeometry>
        </mxCell>
        <mxCell id="bQhRRVensImSbWzhFqzc-42" value="" style="endArrow=classic;html=1;rounded=0;entryX=0.5;entryY=0;entryDx=0;entryDy=0;exitX=0.5;exitY=1;exitDx=0;exitDy=0;" parent="WIyWlLk6GJQsqaUBKTNV-1" source="x8f6ddaZhT9pYknEbqsL-7" target="x8f6ddaZhT9pYknEbqsL-6" edge="1">
          <mxGeometry width="50" height="50" relative="1" as="geometry">
            <mxPoint x="560" y="460" as="sourcePoint" />
            <mxPoint x="610" y="410" as="targetPoint" />
          </mxGeometry>
        </mxCell>
        <mxCell id="bQhRRVensImSbWzhFqzc-49" value="" style="endArrow=classic;html=1;rounded=0;entryX=0;entryY=0.5;entryDx=0;entryDy=0;exitX=1;exitY=0.5;exitDx=0;exitDy=0;" parent="WIyWlLk6GJQsqaUBKTNV-1" source="gQCx5Jv5vYPDxqE4EgkB-2" target="bQhRRVensImSbWzhFqzc-4" edge="1">
          <mxGeometry width="50" height="50" relative="1" as="geometry">
            <mxPoint x="759" y="410" as="sourcePoint" />
            <mxPoint x="780" y="460" as="targetPoint" />
          </mxGeometry>
        </mxCell>
        <mxCell id="r6Sr9w9dq4hsNLHl60UF-3" value="ДА" style="edgeLabel;html=1;align=center;verticalAlign=middle;resizable=0;points=[];" parent="bQhRRVensImSbWzhFqzc-49" vertex="1" connectable="0">
          <mxGeometry x="-0.0064" relative="1" as="geometry">
            <mxPoint x="-1" as="offset" />
          </mxGeometry>
        </mxCell>
        <mxCell id="bQhRRVensImSbWzhFqzc-52" value="" style="endArrow=classic;html=1;rounded=0;exitX=0.5;exitY=1;exitDx=0;exitDy=0;entryX=0.5;entryY=0;entryDx=0;entryDy=0;" parent="WIyWlLk6GJQsqaUBKTNV-1" source="gQCx5Jv5vYPDxqE4EgkB-1" target="gQCx5Jv5vYPDxqE4EgkB-3" edge="1">
          <mxGeometry width="50" height="50" relative="1" as="geometry">
            <mxPoint x="700" y="660" as="sourcePoint" />
            <mxPoint x="700" y="630" as="targetPoint" />
            <Array as="points" />
          </mxGeometry>
        </mxCell>
        <mxCell id="gQCx5Jv5vYPDxqE4EgkB-7" value="Да" style="edgeLabel;html=1;align=center;verticalAlign=middle;resizable=0;points=[];" parent="bQhRRVensImSbWzhFqzc-52" vertex="1" connectable="0">
          <mxGeometry x="0.1501" y="2" relative="1" as="geometry">
            <mxPoint as="offset" />
          </mxGeometry>
        </mxCell>
        <mxCell id="bQhRRVensImSbWzhFqzc-53" value="" style="endArrow=classic;html=1;rounded=0;entryX=0.5;entryY=0;entryDx=0;entryDy=0;exitX=0.5;exitY=1;exitDx=0;exitDy=0;" parent="WIyWlLk6GJQsqaUBKTNV-1" source="gQCx5Jv5vYPDxqE4EgkB-2" target="gQCx5Jv5vYPDxqE4EgkB-1" edge="1">
          <mxGeometry width="50" height="50" relative="1" as="geometry">
            <mxPoint x="699" y="450" as="sourcePoint" />
            <mxPoint x="700" y="580" as="targetPoint" />
          </mxGeometry>
        </mxCell>
        <mxCell id="r6Sr9w9dq4hsNLHl60UF-4" value="НЕТ" style="edgeLabel;html=1;align=center;verticalAlign=middle;resizable=0;points=[];" parent="bQhRRVensImSbWzhFqzc-53" vertex="1" connectable="0">
          <mxGeometry x="-0.1571" y="1" relative="1" as="geometry">
            <mxPoint as="offset" />
          </mxGeometry>
        </mxCell>
        <mxCell id="bQhRRVensImSbWzhFqzc-72" value="Конец" style="ellipse;whiteSpace=wrap;html=1;" parent="WIyWlLk6GJQsqaUBKTNV-1" vertex="1">
          <mxGeometry x="662.5" y="1014.5" width="75" height="50" as="geometry" />
        </mxCell>
        <mxCell id="r6Sr9w9dq4hsNLHl60UF-15" value="" style="endArrow=classic;html=1;rounded=0;exitX=1;exitY=0.5;exitDx=0;exitDy=0;" parent="WIyWlLk6GJQsqaUBKTNV-1" source="gQCx5Jv5vYPDxqE4EgkB-1" edge="1">
          <mxGeometry width="50" height="50" relative="1" as="geometry">
            <mxPoint x="760" y="620" as="sourcePoint" />
            <mxPoint x="1069" y="590" as="targetPoint" />
          </mxGeometry>
        </mxCell>
        <mxCell id="r6Sr9w9dq4hsNLHl60UF-16" value="Нет" style="edgeLabel;html=1;align=center;verticalAlign=middle;resizable=0;points=[];" parent="r6Sr9w9dq4hsNLHl60UF-15" vertex="1" connectable="0">
          <mxGeometry x="-0.6327" y="3" relative="1" as="geometry">
            <mxPoint as="offset" />
          </mxGeometry>
        </mxCell>
        <mxCell id="gQCx5Jv5vYPDxqE4EgkB-0" value="Есть &lt;br&gt;символы в строке?" style="rhombus;whiteSpace=wrap;html=1;" parent="WIyWlLk6GJQsqaUBKTNV-1" vertex="1">
          <mxGeometry x="654" y="260" width="90" height="90" as="geometry" />
        </mxCell>
        <mxCell id="gQCx5Jv5vYPDxqE4EgkB-1" value="&lt;font style=&quot;font-size: 10px;&quot;&gt;&lt;br&gt;Текущий символ закрывающая &lt;br&gt;скобка?&lt;/font&gt;" style="rhombus;whiteSpace=wrap;html=1;" parent="WIyWlLk6GJQsqaUBKTNV-1" vertex="1">
          <mxGeometry x="644" y="540" width="110" height="110" as="geometry" />
        </mxCell>
        <mxCell id="gQCx5Jv5vYPDxqE4EgkB-2" value="&lt;font style=&quot;font-size: 10px;&quot;&gt;Текущий символ&lt;br&gt;открывающая &lt;br&gt;скобка?&lt;/font&gt;" style="rhombus;whiteSpace=wrap;html=1;" parent="WIyWlLk6GJQsqaUBKTNV-1" vertex="1">
          <mxGeometry x="639" y="380" width="120" height="120" as="geometry" />
        </mxCell>
        <mxCell id="gQCx5Jv5vYPDxqE4EgkB-3" value="Стек пуст?" style="rhombus;whiteSpace=wrap;html=1;" parent="WIyWlLk6GJQsqaUBKTNV-1" vertex="1">
          <mxGeometry x="660" y="720" width="80" height="80" as="geometry" />
        </mxCell>
        <mxCell id="gQCx5Jv5vYPDxqE4EgkB-4" value="Скобки соответствуют?" style="rhombus;whiteSpace=wrap;html=1;" parent="WIyWlLk6GJQsqaUBKTNV-1" vertex="1">
          <mxGeometry x="807.75" y="890" width="104.5" height="104.5" as="geometry" />
        </mxCell>
        <mxCell id="gQCx5Jv5vYPDxqE4EgkB-5" value="Стек пуст?" style="rhombus;whiteSpace=wrap;html=1;" parent="WIyWlLk6GJQsqaUBKTNV-1" vertex="1">
          <mxGeometry x="390" y="375" width="80" height="80" as="geometry" />
        </mxCell>
        <mxCell id="gQCx5Jv5vYPDxqE4EgkB-9" value="" style="endArrow=classic;html=1;rounded=0;exitX=0;exitY=0.5;exitDx=0;exitDy=0;entryX=1.014;entryY=0.56;entryDx=0;entryDy=0;entryPerimeter=0;" parent="WIyWlLk6GJQsqaUBKTNV-1" source="gQCx5Jv5vYPDxqE4EgkB-4" target="bQhRRVensImSbWzhFqzc-13" edge="1">
          <mxGeometry width="50" height="50" relative="1" as="geometry">
            <mxPoint x="610" y="1010" as="sourcePoint" />
            <mxPoint x="660" y="960" as="targetPoint" />
          </mxGeometry>
        </mxCell>
        <mxCell id="gQCx5Jv5vYPDxqE4EgkB-10" value="НЕТ" style="edgeLabel;html=1;align=center;verticalAlign=middle;resizable=0;points=[];" parent="gQCx5Jv5vYPDxqE4EgkB-9" vertex="1" connectable="0">
          <mxGeometry x="-0.0756" y="1" relative="1" as="geometry">
            <mxPoint as="offset" />
          </mxGeometry>
        </mxCell>
      </root>
    </mxGraphModel>
  </diagram>
</mxfile>
